<?xml version="1.0" encoding="UTF-8"?>
<svg xmlns="http://www.w3.org/2000/svg" xmlns:xlink="http://www.w3.org/1999/xlink" width="48pt" height="48pt" viewBox="0 0 48 48" version="1.1">
<defs>
<linearGradient id="linear0" gradientUnits="userSpaceOnUse" x1="94336.7" y1="156803" x2="72796.6" y2="10379.1" gradientTransform="matrix(0.0287941,0,0,0.0287941,0,0)">
<stop offset="0" style="stop-color:rgb(34.117647%,34.117647%,34.117647%);stop-opacity:1;"/>
<stop offset="1" style="stop-color:rgb(52.54902%,52.941176%,52.941176%);stop-opacity:1;"/>
</linearGradient>
</defs>
<g id="surface1">
<path style=" stroke:none;fill-rule:evenodd;fill:url(#linear0);" d="M 25.367188 1.726562 C 25.367188 2.851562 25.65625 4.835938 24.015625 4.835938 C 22.316406 4.835938 22.601562 2.851562 22.601562 1.726562 C 11.34375 2.417969 2.417969 11.34375 1.726562 22.601562 C 2.851562 22.601562 4.835938 22.316406 4.835938 24.015625 C 4.835938 25.65625 2.851562 25.367188 1.726562 25.367188 C 2.417969 36.625 11.34375 45.550781 22.601562 46.273438 C 22.601562 45.148438 22.316406 43.164062 24.015625 43.164062 C 25.65625 43.164062 25.367188 45.148438 25.367188 46.273438 C 36.570312 45.550781 45.550781 36.570312 46.273438 25.367188 C 45.148438 25.367188 43.164062 25.65625 43.164062 24.015625 C 43.164062 22.316406 45.148438 22.601562 46.273438 22.601562 C 45.609375 11.34375 36.625 2.417969 25.367188 1.726562 Z M 26.03125 26.402344 L 26.03125 41.320312 L 22.316406 41.320312 L 22.316406 26.402344 C 21.96875 26.230469 21.625 25.914062 21.308594 25.625 L 10.421875 28.5625 L 9.472656 24.964844 L 20.359375 22.027344 C 20.789062 20.242188 22.402344 18.976562 24.1875 18.976562 C 26.402344 18.976562 28.132812 20.789062 28.132812 22.921875 C 28.132812 24.386719 27.355469 25.742188 26.03125 26.402344 Z M 26.03125 26.402344 "/>
</g>
</svg>
