<?xml version="1.0" encoding="UTF-8"?>
<svg xmlns="http://www.w3.org/2000/svg" xmlns:xlink="http://www.w3.org/1999/xlink" width="32pt" height="32pt" viewBox="0 0 32 32" version="1.1">
<defs>
<linearGradient id="linear0" gradientUnits="userSpaceOnUse" x1="1926.35" y1="3202.07" x2="1486.97" y2="211.26" gradientTransform="matrix(0.00938201,0,0,0.00938201,0,0)">
<stop offset="0" style="stop-color:rgb(34.117647%,34.117647%,34.117647%);stop-opacity:1;"/>
<stop offset="1" style="stop-color:rgb(52.54902%,52.941176%,52.941176%);stop-opacity:1;"/>
</linearGradient>
</defs>
<g id="surface1">
<path style=" stroke:none;fill-rule:evenodd;fill:url(#linear0);" d="M 30.191406 16.015625 C 30.191406 23.84375 23.84375 30.191406 16.015625 30.191406 C 8.1875 30.191406 1.839844 23.84375 1.839844 16.015625 C 1.839844 8.1875 8.1875 1.839844 16.015625 1.839844 C 23.84375 1.839844 30.191406 8.1875 30.191406 16.015625 Z M 30.191406 16.015625 "/>
<path style=" stroke:none;fill-rule:evenodd;fill:rgb(80%,80%,80%);fill-opacity:1;" d="M 16.015625 31.8125 C 7.261719 31.8125 0.207031 24.769531 0.207031 16.015625 C 0.207031 7.300781 7.300781 0.207031 16.015625 0.207031 C 24.757812 0.207031 31.8125 7.261719 31.8125 16.015625 C 31.8125 24.769531 24.757812 31.8125 16.015625 31.8125 Z M 16.878906 1.980469 C 16.878906 2.691406 17.066406 3.941406 16.015625 3.941406 C 14.953125 3.941406 15.140625 2.691406 15.140625 1.980469 C 8.050781 2.429688 2.429688 8.050781 1.980469 15.140625 C 2.691406 15.140625 3.941406 14.953125 3.941406 16.015625 C 3.941406 17.066406 2.691406 16.878906 1.980469 16.878906 C 2.429688 23.972656 8.050781 29.589844 15.140625 30.042969 C 15.140625 29.328125 14.953125 28.082031 16.015625 28.082031 C 17.066406 28.082031 16.878906 29.328125 16.878906 30.042969 C 23.933594 29.589844 29.589844 23.933594 30.042969 16.878906 C 29.328125 16.878906 28.082031 17.066406 28.082031 16.015625 C 28.082031 14.953125 29.328125 15.140625 30.042969 15.140625 C 29.628906 8.050781 23.972656 2.429688 16.878906 1.980469 Z M 17.480469 17.789062 L 17.480469 27.179688 L 15.140625 27.179688 L 15.140625 17.789062 C 14.917969 17.675781 14.691406 17.480469 14.503906 17.292969 L 7.636719 19.140625 L 7.035156 16.878906 L 13.902344 15.03125 C 14.167969 13.894531 15.179688 13.105469 16.316406 13.105469 C 17.714844 13.105469 18.800781 14.242188 18.800781 15.59375 C 18.800781 16.503906 18.3125 17.367188 17.480469 17.789062 Z M 17.480469 17.789062 "/>
</g>
</svg>
