<?xml version="1.0" encoding="UTF-8"?>
<svg xmlns="http://www.w3.org/2000/svg" xmlns:xlink="http://www.w3.org/1999/xlink" width="16pt" height="16pt" viewBox="0 0 16 16" version="1.1">
<defs>
<linearGradient id="linear0" gradientUnits="userSpaceOnUse" x1="1926.35" y1="3202.07" x2="1486.97" y2="211.26" gradientTransform="matrix(0.00469101,0,0,0.00469101,0,0)">
<stop offset="0" style="stop-color:rgb(34.117647%,34.117647%,34.117647%);stop-opacity:1;"/>
<stop offset="1" style="stop-color:rgb(52.54902%,52.941176%,52.941176%);stop-opacity:1;"/>
</linearGradient>
</defs>
<g id="surface1">
<path style=" stroke:none;fill-rule:evenodd;fill:url(#linear0);" d="M 15.097656 8.007812 C 15.097656 11.921875 11.921875 15.097656 8.007812 15.097656 C 4.09375 15.097656 0.917969 11.921875 0.917969 8.007812 C 0.917969 4.09375 4.09375 0.917969 8.007812 0.917969 C 11.921875 0.917969 15.097656 4.09375 15.097656 8.007812 Z M 15.097656 8.007812 "/>
<path style=" stroke:none;fill-rule:evenodd;fill:rgb(80%,80%,80%);fill-opacity:1;" d="M 8.007812 15.90625 C 3.632812 15.90625 0.101562 12.382812 0.101562 8.007812 C 0.101562 3.648438 3.648438 0.101562 8.007812 0.101562 C 12.378906 0.101562 15.90625 3.632812 15.90625 8.007812 C 15.90625 12.382812 12.378906 15.90625 8.007812 15.90625 Z M 8.441406 0.992188 C 8.441406 1.347656 8.535156 1.96875 8.007812 1.96875 C 7.476562 1.96875 7.570312 1.347656 7.570312 0.992188 C 4.023438 1.214844 1.214844 4.023438 0.992188 7.570312 C 1.347656 7.570312 1.96875 7.476562 1.96875 8.007812 C 1.96875 8.535156 1.347656 8.441406 0.992188 8.441406 C 1.214844 11.984375 4.023438 14.796875 7.570312 15.023438 C 7.570312 14.664062 7.476562 14.039062 8.007812 14.039062 C 8.535156 14.039062 8.441406 14.664062 8.441406 15.023438 C 11.964844 14.796875 14.796875 11.964844 15.023438 8.441406 C 14.664062 8.441406 14.039062 8.535156 14.039062 8.007812 C 14.039062 7.476562 14.664062 7.570312 15.023438 7.570312 C 14.816406 4.023438 11.984375 1.214844 8.441406 0.992188 Z M 8.742188 8.894531 L 8.742188 13.589844 L 7.570312 13.589844 L 7.570312 8.894531 C 7.460938 8.835938 7.347656 8.742188 7.253906 8.648438 L 3.820312 9.570312 L 3.519531 8.441406 L 6.953125 7.515625 C 7.085938 6.945312 7.589844 6.554688 8.15625 6.554688 C 8.855469 6.554688 9.398438 7.121094 9.398438 7.796875 C 9.398438 8.25 9.15625 8.683594 8.742188 8.894531 Z M 8.742188 8.894531 "/>
</g>
</svg>
