<?xml version="1.0" encoding="UTF-8"?>
<svg xmlns="http://www.w3.org/2000/svg" xmlns:xlink="http://www.w3.org/1999/xlink" width="20pt" height="20pt" viewBox="0 0 20 20" version="1.1">
<defs>
<linearGradient id="linear0" gradientUnits="userSpaceOnUse" x1="1926.35" y1="3202.07" x2="1486.97" y2="211.26" gradientTransform="matrix(0.00586376,0,0,0.00586376,0,0)">
<stop offset="0" style="stop-color:rgb(34.117647%,34.117647%,34.117647%);stop-opacity:1;"/>
<stop offset="1" style="stop-color:rgb(52.54902%,52.941176%,52.941176%);stop-opacity:1;"/>
</linearGradient>
</defs>
<g id="surface1">
<path style=" stroke:none;fill-rule:evenodd;fill:url(#linear0);" d="M 18.871094 10.007812 C 18.871094 14.902344 14.902344 18.871094 10.007812 18.871094 C 5.117188 18.871094 1.148438 14.902344 1.148438 10.007812 C 1.148438 5.117188 5.117188 1.148438 10.007812 1.148438 C 14.902344 1.148438 18.871094 5.117188 18.871094 10.007812 Z M 18.871094 10.007812 "/>
<path style=" stroke:none;fill-rule:evenodd;fill:rgb(80%,80%,80%);fill-opacity:1;" d="M 10.007812 19.882812 C 4.539062 19.882812 0.128906 15.480469 0.128906 10.007812 C 0.128906 4.5625 4.5625 0.128906 10.007812 0.128906 C 15.472656 0.128906 19.882812 4.539062 19.882812 10.007812 C 19.882812 15.480469 15.472656 19.882812 10.007812 19.882812 Z M 10.550781 1.238281 C 10.550781 1.683594 10.667969 2.460938 10.007812 2.460938 C 9.347656 2.460938 9.464844 1.683594 9.464844 1.238281 C 5.03125 1.519531 1.519531 5.03125 1.238281 9.464844 C 1.683594 9.464844 2.460938 9.347656 2.460938 10.007812 C 2.460938 10.667969 1.683594 10.550781 1.238281 10.550781 C 1.519531 14.980469 5.03125 18.496094 9.464844 18.777344 C 9.464844 18.332031 9.347656 17.550781 10.007812 17.550781 C 10.667969 17.550781 10.550781 18.332031 10.550781 18.777344 C 14.957031 18.496094 18.496094 14.957031 18.777344 10.550781 C 18.332031 10.550781 17.550781 10.667969 17.550781 10.007812 C 17.550781 9.347656 18.332031 9.464844 18.777344 9.464844 C 18.519531 5.03125 14.980469 1.519531 10.550781 1.238281 Z M 10.925781 11.117188 L 10.925781 16.988281 L 9.464844 16.988281 L 9.464844 11.117188 C 9.324219 11.046875 9.183594 10.925781 9.066406 10.808594 L 4.773438 11.960938 L 4.398438 10.550781 L 8.691406 9.394531 C 8.855469 8.683594 9.488281 8.191406 10.195312 8.191406 C 11.070312 8.191406 11.75 8.902344 11.75 9.746094 C 11.75 10.3125 11.445312 10.855469 10.925781 11.117188 Z M 10.925781 11.117188 "/>
</g>
</svg>
